<svg id="Layer_2" data-name="Layer 2" xmlns="http://www.w3.org/2000/svg" viewBox="0 0 600 600"><defs><style>.cls-1{fill:#f79434;}.cls-2{fill:#f89a35;}.cls-3{fill:#fbac40;}.cls-4{fill:#f89635;}.cls-5{fill:#faa93f;}.cls-6{fill:#fcb74d;}.cls-7{fill:#febe46;}.cls-8{fill:#ffcc60;}.cls-9{fill:#fbaf42;}.cls-10{fill:#ffce63;}.cls-11{fill:#ffd15e;}.cls-12{fill:#ffd863;}.cls-13{fill:#ffcf53;}.cls-14{fill:#ffc649;}.cls-15{fill:#fdba4b;}.cls-16{fill:#fec256;}.cls-17{fill:#fdb848;}.cls-18{fill:#faa339;}.cls-19{fill:#faa639;}.cls-20{fill:#f99e34;}.cls-21{fill:#ffd471;}.cls-22{fill:#ffd270;}.cls-23{fill:#ffd879;}.cls-24{fill:#fec344;}.cls-25{fill:#febe40;}.cls-26{fill:#ffe66f;}.cls-27{fill:#ffde6f;}.cls-28{fill:#ffe579;}.cls-29{fill:#ffe783;}.cls-30{fill:#ffd56e;}.cls-31{fill:#ffd156;}.cls-32{fill:#ffe060;}.cls-33{fill:#ffd857;}.cls-34{fill:#ffe365;}.cls-35{fill:#ffcc4b;}.cls-36{fill:#febf40;}.cls-37{fill:#ffd94e;}.cls-38{fill:#ffe55f;}.cls-39{fill:#ffe786;}.cls-40{fill:#fcb244;}.cls-41{fill:#fbac41;}.cls-42{fill:#fbac3d;}.cls-43{fill:#fdbd51;}.cls-44{fill:#f7912f;}.cls-45{fill:#fec153;}.cls-46{fill:#ffd14b;}.cls-47{fill:#ffd95c;}.cls-48{fill:#ffc960;}.cls-49{fill:#ffda66;}.cls-50{fill:#ffda4e;}.cls-51{fill:#ffe466;}.cls-52{fill:#ffe36f;}.cls-53{fill:#ffdc6d;}.cls-54{fill:#ffd248;}.cls-55{fill:#f79538;}.cls-56{fill:#f68734;}.cls-57{fill:#f58334;}.cls-58{fill:#f58032;}.cls-59{fill:#f78e37;}.cls-60{fill:#f89c38;}.cls-61{fill:#f99e38;}.cls-62{fill:#f9a138;}.cls-63{fill:#fbae3b;}.cls-64{fill:#fbac3b;}.cls-65{fill:#ffe58a;}.cls-66{fill:#fcb43e;}.cls-67{fill:#ffcf4a;}.cls-68{fill:#ffe674;}.cls-69{fill:#febf3f;}.cls-70{fill:#ffc944;}.cls-71{fill:#ffd04a;}.cls-72{fill:#fbab3b;}.cls-73{fill:#fbaf3c;}.cls-74{fill:#f68835;}.cls-75{fill:#f79539;}.cls-76{fill:#f8993a;}.cls-77{fill:#f68b36;}.cls-78{fill:#fbac3c;}.cls-79{fill:#f58533;}.cls-80{fill:#f68b35;}.cls-81{fill:#f58232;}.cls-82{fill:#f89738;}.cls-83{fill:#f68c35;}.cls-84{fill:#f89837;}.cls-85{fill:#f78e34;}.cls-86{fill:#f89939;}.cls-87{fill:#f9a030;}.cls-88{fill:#f99e31;}.cls-89{fill:#fbae38;}.cls-90{fill:#fcb138;}.cls-91{fill:#fbad39;}.cls-92{fill:#febe3f;}.cls-93{fill:#fcb23f;}.cls-94{fill:#ffc948;}.cls-95{fill:#ffd045;}.cls-96{fill:#fcb33d;}.cls-97{fill:#fec03f;}.cls-98{fill:#fdba40;}.cls-99{fill:#f79334;}.cls-100{fill:none;}.cls-101{fill:#fec340;}.cls-102{fill:#f58031;}</style></defs><title>Logo-as</title><path class="cls-1" d="M35,559a12.54,12.54,0,0,0,2.67,4.38,12.89,12.89,0,0,0,2.88,2.27l-5.16-18.39a16,16,0,0,0-1.28,6.55A15.3,15.3,0,0,0,35,559Z"/><path class="cls-2" d="M35.77,524q.72,6.69,3.38,9.84,9.35-3,13.07-3a8.23,8.23,0,0,1,2,.24L35.85,524Z"/><path class="cls-2" d="M70.18,566.9a10.14,10.14,0,0,0,2.59-3.16,15.5,15.5,0,0,0,1.69-4.06c-1.66-1.15-2.49-3.1-2.49-5.87V538l-16.18-6.28c1.47.9,2.22,2.54,2.22,4.92v1.73c-.78-.06-1.68-.1-2.71-.13s-2.25,0-3.61,0a23.11,23.11,0,0,0-6.85,1,16.91,16.91,0,0,0-5.6,2.94A13.57,13.57,0,0,0,35.46,547c0,.08-.06.18-.1.26l5.16,18.39a15.8,15.8,0,0,0,1.48.76,15,15,0,0,0,6,1.12h0q6.77,0,12.53-5.41A11.69,11.69,0,0,0,70.18,566.9ZM58,554.53q-3.12,2.63-5.61,2.62-4.8,0-4.8-4.24,0-5.77,5.6-5.78c.42,0,1,0,1.82,0l3,.13Z"/><path class="cls-3" d="M167.49,523.88l-12.2,26.47v15.83c1,.18,2.11.31,3.29.41s2.4.12,3.64.12,2.47,0,3.65-.12,2.27-.23,3.29-.41V536a12.84,12.84,0,0,1,3.47-2.34,7.91,7.91,0,0,1,3-.73,3.41,3.41,0,0,1,2.86,1.13l-.29-13.5a20.73,20.73,0,0,0-9.77,5.33A10.6,10.6,0,0,0,167.49,523.88Z"/><path class="cls-4" d="M138.6,564.08l-31.52-12.41c.14.6.28,1.2.46,1.78a20.92,20.92,0,0,0,3.95,7.54,17.94,17.94,0,0,0,6.41,4.83,21,21,0,0,0,8.74,1.71h0a21.86,21.86,0,0,0,8.8-1.67A17.22,17.22,0,0,0,138.6,564.08Z"/><path class="cls-5" d="M180.81,520.31a13.4,13.4,0,0,0-2.59.27l.29,13.5a1.85,1.85,0,0,1,.25.32,9.63,9.63,0,0,1,.8,4.51v19.23c0,3,.57,5.15,1.69,6.59s3.24,2.17,6.32,2.17a11.64,11.64,0,0,0,8.09-3.07q-2.13-3-2.13-8.94v-18.5c0-1-.06-1.88-.14-2.77l-5.45-11.22A11.85,11.85,0,0,0,180.81,520.31Z"/><path class="cls-6" d="M55.79,531.72a5.5,5.5,0,0,0-1.55-.6Z"/><path class="cls-6" d="M70.68,528.49a13,13,0,0,0-3.47-4.79A14.49,14.49,0,0,0,62.14,521a20.1,20.1,0,0,0-6-.91,41.18,41.18,0,0,0-4.8.32c-1.79.21-3.59.5-5.42.86s-3.64.78-5.39,1.26-3.27,1-4.68,1.51l18.39,7.13a5.5,5.5,0,0,1,1.55.6L72,538v-2.52A17.44,17.44,0,0,0,70.68,528.49Z"/><path class="cls-6" d="M74.72,505.42a7.74,7.74,0,0,0-.58,2.08,19,19,0,0,0-.13,2.35,20.39,20.39,0,0,0,.13,2.34,7.88,7.88,0,0,0,.58,2.17,8.58,8.58,0,0,0,2.76,1.17,13.36,13.36,0,0,0,3.11.36c.35,0,.69,0,1-.06l-5.63-11A12.17,12.17,0,0,0,74.72,505.42Z"/><path class="cls-7" d="M61.81,250.1a65.52,65.52,0,0,0-15.5,20.17c-.18.36-.34.74-.52,1.1L60,287.44Z"/><polygon class="cls-8" points="95.4 418.93 95.4 418.93 95.4 418.93 95.4 418.93"/><path class="cls-8" d="M117.85,521.49a17.18,17.18,0,0,0-6.4,4.87,22,22,0,0,0-3.91,7.55,33.27,33.27,0,0,0-1.33,9.54l15.09-8.84c.09-.26.19-.51.29-.75a6.54,6.54,0,0,1,1.93-2.57,4.94,4.94,0,0,1,3.18-.95,6.53,6.53,0,0,1,1.58.18l11.27-6.6a19.89,19.89,0,0,0-12.9-4.15A21.36,21.36,0,0,0,117.85,521.49Z"/><path class="cls-8" d="M101.49,515.53a8.49,8.49,0,0,0,2.76-1.17,13.2,13.2,0,0,0,.7-4.43,13.47,13.47,0,0,0-.7-4.51A12.88,12.88,0,0,0,98.38,504c-.4,0-.77,0-1.15.06l.25,11.8c.3,0,.6,0,.9,0A13.36,13.36,0,0,0,101.49,515.53Z"/><path class="cls-8" d="M95.4,418.93l1,45.89c14.86,6.23,33.38,10.55,56.49,11.72Z"/><path class="cls-9" d="M131.71,533.72a29.83,29.83,0,0,1,1.26,9.89,30.36,30.36,0,0,1-1.26,9.89,5,5,0,0,1-5.19,3.47,5.21,5.21,0,0,1-3.18-.9,5.75,5.75,0,0,1-1.88-2.76,17.83,17.83,0,0,1-.9-4.6q-.23-2.75-.22-6.54a36.09,36.09,0,0,1,.27-4.56,14.51,14.51,0,0,1,.69-3l-15.09,8.84c0,.09,0,.16,0,.25a34.75,34.75,0,0,0,.88,8l31.52,12.41a17.12,17.12,0,0,0,3.3-3,21.34,21.34,0,0,0,4-7.53,33,33,0,0,0,1.39-9.84q0-12.09-6.41-18.6a16.49,16.49,0,0,0-1.33-1.18l-11.27,6.6A4.72,4.72,0,0,1,131.71,533.72Z"/><path class="cls-9" d="M161.16,520.5h-5.25l-.62.63v29.22l12.2-26.47A6.93,6.93,0,0,0,161.16,520.5Z"/><path class="cls-10" d="M92.68,505.42a11.38,11.38,0,0,0-.8,4.43,11.65,11.65,0,0,0,.8,4.51,7.52,7.52,0,0,0,2.67,1.17,13,13,0,0,0,2.13.31L97.23,504A11.38,11.38,0,0,0,92.68,505.42Z"/><path class="cls-10" d="M95.4,418.93h0L55.6,434.22c8.89,11.62,21.86,22.66,40.79,30.6l-1-45.89Z"/><path class="cls-10" d="M86.28,514.36a11.23,11.23,0,0,0,.8-4.43,11.43,11.43,0,0,0-.8-4.51A11.49,11.49,0,0,0,80.59,504a12.49,12.49,0,0,0-4.6.85l5.63,11a11.63,11.63,0,0,0,1.95-.3A8.51,8.51,0,0,0,86.28,514.36Z"/><path class="cls-11" d="M52.24,355.91h0l-19.69-9.23a268.59,268.59,0,0,0,6.14,50.72,98,98,0,0,0,6.4,19.22l7.15-60.71Z"/><path class="cls-12" d="M54.35,359l-2.11-3.07h0l-7.15,60.71A90.35,90.35,0,0,0,55.6,434.21l39.8-15.28Z"/><path class="cls-13" d="M52.24,355.91,33.57,318.39a226.47,226.47,0,0,0-1,28.29l19.69,9.23Z"/><polygon class="cls-13" points="52.24 355.91 52.24 355.91 52.24 355.91 52.24 355.91 52.24 355.91 52.24 355.91"/><path class="cls-14" d="M60,287.44,45.79,271.37a127.83,127.83,0,0,0-9.69,30L60,287.44Z"/><path class="cls-15" d="M268.13,544.06a35.92,35.92,0,0,1,.67-7.08,22.73,22.73,0,0,1,.74-2.71l-6.1-2.18a23.65,23.65,0,0,0-.86,2.54,34.86,34.86,0,0,0-1.2,9.43,36,36,0,0,0,.87,8.06l6-5.19C268.18,546,268.13,545.05,268.13,544.06Z"/><path class="cls-15" d="M232.39,521.67a15.62,15.62,0,0,0-4.81,2.53,11.59,11.59,0,0,0-3.2,3.93,11.18,11.18,0,0,0-1.15,5.1,10.23,10.23,0,0,0,2.85,7.27,23.78,23.78,0,0,0,8.57,5.28l5,2a12.6,12.6,0,0,1,4.87,3.11,6.62,6.62,0,0,1,1.65,4.57,6.1,6.1,0,0,1-.71,2.35,7.05,7.05,0,0,1-1.79,2.11,9.12,9.12,0,0,1-2.81,1.54A11.6,11.6,0,0,1,237,562a21,21,0,0,1-5.76-.91,32.17,32.17,0,0,1-7.18-3.24,6.44,6.44,0,0,0-2.59,4.87,27,27,0,0,0,14.67,4.51q7.74,0,12.28-3.34a11,11,0,0,0,4.53-9.39q0-8.67-11-13.09l-5.25-2.08a15.94,15.94,0,0,1-5.06-2.84,5.33,5.33,0,0,1-1.61-4.11,5.7,5.7,0,0,1,2.1-4.33c1.39-1.26,3.45-1.9,6.18-1.9a23.53,23.53,0,0,1,5.11.64,32.58,32.58,0,0,1,6.18,2.16,7,7,0,0,0,1.1-1.46l-17.21-6.14C233.09,521.47,232.73,521.56,232.39,521.67Z"/><path class="cls-15" d="M187.94,522.4l5.45,11.22a17.62,17.62,0,0,0-3.11-8.93A10.57,10.57,0,0,0,187.94,522.4Z"/><path class="cls-16" d="M288.76,531.38a18.92,18.92,0,0,1,2.09,5.77,34.26,34.26,0,0,1,.67,6.66l6.66,3.28c.07-1,.1-2,.1-3a34.05,34.05,0,0,0-1.24-9.43,22.53,22.53,0,0,0-3.6-7.37c-.32-.41-.66-.78-1-1.16L287.86,530A13,13,0,0,1,288.76,531.38Z"/><path class="cls-16" d="M347.46,560.94c-2.37,0-4-.75-5-2.26s-1.42-4.15-1.42-7.94v-7.67l-6.49-11.71v21.55q0,6.33,2.71,10.19c1.8,2.59,4.7,3.89,8.67,3.89a20.41,20.41,0,0,0,7.54-1.49l-2.75-5A14.42,14.42,0,0,1,347.46,560.94Z"/><path class="cls-17" d="M341.06,525.73c0-2.94-1.13-4.42-3.38-4.42a5.82,5.82,0,0,0-4.18,1.44,22.74,22.74,0,0,1,1.07,7.68v.93l6.49,11.71Z"/><path class="cls-17" d="M361.24,554a20,20,0,0,1-6.4,5,18.45,18.45,0,0,1-4.1,1.54l2.75,5,.95-.4a23.88,23.88,0,0,0,7.25-5q1.24,5.24,5.6,6.68a5.16,5.16,0,0,0,3-3.43q-2.47-2.45-2.48-9.66v-23.4l-6.59-3.65Z"/><path class="cls-18" d="M266.13,560.81a16.91,16.91,0,0,0,5.78,4.74,17.39,17.39,0,0,0,7.87,1.71,16.81,16.81,0,0,0,11-3.59l-2.66-5.9a9.51,9.51,0,0,1-8.25,4.26,9.91,9.91,0,0,1-5.36-1.4,10.6,10.6,0,0,1-3.61-3.84,19.59,19.59,0,0,1-2.06-5.69,31.58,31.58,0,0,1-.55-4.17l-6,5.19c.1.46.2.93.33,1.38A20.86,20.86,0,0,0,266.13,560.81Z"/><path class="cls-19" d="M291.53,544.06q0,8.12-3,13.05c-.14.23-.3.44-.45.66l2.66,5.9a16.48,16.48,0,0,0,1.32-1.19q5.42-5.51,6.12-15.39l-6.66-3.28C291.52,543.89,291.53,544,291.53,544.06Z"/><polygon class="cls-20" points="513.74 567.53 513.74 567.53 513.74 567.53 513.74 567.53"/><path class="cls-20" d="M483.51,566.18a20.18,20.18,0,0,0,6.58,0v-3L483.51,562Z"/><path class="cls-20" d="M452.61,562a9.87,9.87,0,0,1-5.35-1.4,10.54,10.54,0,0,1-3.62-3.84,17.65,17.65,0,0,1-1.08-2.32l-7.29-1.34.09.37a21,21,0,0,0,3.55,7.31,16.91,16.91,0,0,0,5.78,4.74,17.39,17.39,0,0,0,7.87,1.71c5,0,9.14-1.59,12.27-4.78A18.74,18.74,0,0,0,467.5,559l-6.68-1.22A9.51,9.51,0,0,1,452.61,562Z"/><path class="cls-21" d="M266.13,527.26a20.49,20.49,0,0,0-2.69,4.83l6.1,2.18a17.05,17.05,0,0,1,1.36-3,11.15,11.15,0,0,1,3.54-3.79l-2.27-5.08-.26.1A16.69,16.69,0,0,0,266.13,527.26Z"/><path class="cls-21" d="M238.43,520.76a19.43,19.43,0,0,0-5,.62l17.21,6.14a7.41,7.41,0,0,0,.95-3.77A31.83,31.83,0,0,0,238.43,520.76Z"/><path class="cls-22" d="M366.36,521.67a17.52,17.52,0,0,0-1.83-.09c-.65,0-1.27,0-1.87.09a6.77,6.77,0,0,0-1.42.27v4.73l6.59,3.65v-8.38A8.81,8.81,0,0,0,366.36,521.67Z"/><path class="cls-22" d="M357.72,456.45q4.21,1.62,8.44,2.87L363,450.09Z"/><path class="cls-23" d="M274.52,527.41a9.43,9.43,0,0,1,5.22-1.41,9.7,9.7,0,0,1,5.36,1.45,10.92,10.92,0,0,1,2.76,2.59l4.58-3.94a16.64,16.64,0,0,0-4.78-3.62,18.8,18.8,0,0,0-15.49-.1l2.27,5.08Z"/><path class="cls-24" d="M60,287.44h0L63.53,283,106.74,229c-14.36,3.13-31.47,9.24-44.93,21.15L60,287.44Z"/><path class="cls-25" d="M161.05,229.12a83,83,0,0,0-8.47-2l.56,6.83A90.25,90.25,0,0,1,161.05,229.12Z"/><path class="cls-26" d="M185.29,468.64a92,92,0,0,1-28.11-9.58l8.64,17.79q9,0,17.75-.66Z"/><path class="cls-27" d="M123.06,411.42c-.24-1.37-.46-2.71-.69-4.05l-27,11.56h0l57.48,57.61c4.13.2,8.39.31,12.81.31h.13l-8.64-17.79C140.43,449.92,127.16,434.69,123.06,411.42Z"/><path class="cls-28" d="M228.36,468.08a124,124,0,0,1-23.5,2.25,113.4,113.4,0,0,1-19.57-1.69l-1.72,7.55A204.79,204.79,0,0,0,228.36,468.08Z"/><path class="cls-29" d="M363,450.09h0l-3.1-3.26L315,399.57h0l1.23,31.71c13.83,11.47,27.59,19.83,41.49,25.17l5.26-6.36Z"/><path class="cls-30" d="M395.4,471.71a111,111,0,0,1-23.85-2.64A167.47,167.47,0,0,0,403,475.9l.46-4.52C400.82,471.59,398.13,471.71,395.4,471.71Z"/><path class="cls-30" d="M363,450.09h0l3.18,9.23a103.11,103.11,0,0,0,25.37,4.19L363,450.09Z"/><path class="cls-31" d="M52.24,355.91h0L60,287.44h0L36.1,301.38c-1.12,5.56-2,11.26-2.53,17l18.67,37.52Z"/><path class="cls-32" d="M116.45,318.15,52.24,355.91l68.63,42.17C115.66,364.07,114.92,338.68,116.45,318.15Z"/><path class="cls-33" d="M52.24,355.91l64.21-37.76A233.56,233.56,0,0,1,120,291.27l-60-3.83h0L52.24,355.9Z"/><path class="cls-34" d="M52.24,355.91,54.35,359,95.4,418.93h0l27-11.56c-.53-3.17-1-6.27-1.5-9.29Z"/><path class="cls-35" d="M120,291.27c.84-4.35,1.76-8.5,2.71-12.51a76.65,76.65,0,0,1,11.41-26.07l-15.07-25.87c-3.72.48-7.89,1.16-12.33,2.13L63.53,283,60,287.44h0Z"/><path class="cls-36" d="M153.14,234l-.56-6.83A100,100,0,0,0,135,225.68a128.92,128.92,0,0,0-16,1.14l15.07,25.87A73.81,73.81,0,0,1,153.14,234Z"/><path class="cls-37" d="M309.25,395.05l5.75,4.52,1.54-28.72C314,380.15,311.45,388.32,309.25,395.05Z"/><path class="cls-38" d="M315,399.57h0l-5.75-4.52c-1.65,5.05-3.12,9.29-4.3,12.58L315,399.57Z"/><path class="cls-39" d="M305,407.63c-.34.93-.65,1.79-.94,2.57q-1.12,3.06-2.31,5.9c.61.79,1.18,1.55,1.73,2.31a45.27,45.27,0,0,0,6.95,7.85q2.92,2.6,5.85,5L315,399.57h0Z"/><path class="cls-40" d="M533.32,401.15l6.31,13c-.94-10.77-6.4-20.87-14.78-30.43Z"/><path class="cls-41" d="M498.51,465.69q4.47-1.86,8.59-4l-10.41-6.86Z"/><path class="cls-41" d="M516.86,557.6V535.21q0-6.32-2.76-10.2a9.09,9.09,0,0,0-6.29-3.69l1.49,8.92a16.94,16.94,0,0,1,.95,5.69l5.12,30.59a4.7,4.7,0,0,0,2.47-1.25A22.58,22.58,0,0,1,516.86,557.6Z"/><path class="cls-41" d="M530,557.88a7,7,0,0,0-2.28,3.17l3.42-2.54Z"/><path class="cls-41" d="M542.65,539.36a15.89,15.89,0,0,1-5.07-2.84,5.32,5.32,0,0,1-1.6-4.11,5.69,5.69,0,0,1,2.09-4.33c1.39-1.26,3.45-1.9,6.18-1.9a23.45,23.45,0,0,1,5.11.64,32.34,32.34,0,0,1,6.18,2.16,7.16,7.16,0,0,0,2.05-5.23,31.82,31.82,0,0,0-13.16-3,19.39,19.39,0,0,0-6,.91,15.62,15.62,0,0,0-4.81,2.53,11.59,11.59,0,0,0-3.2,3.93,11.31,11.31,0,0,0-1.15,5.1,10.23,10.23,0,0,0,2.85,7.27,23.78,23.78,0,0,0,8.57,5.28l5,2,6-4.48a27.29,27.29,0,0,0-3.79-1.84Z"/><polygon class="cls-42" points="483.51 561.98 490.09 563.19 490.09 539.4 483.51 531.57 483.51 561.98"/><path class="cls-42" d="M513,566.66l-2.64-3.15C510.61,565.39,511.49,566.43,513,566.66Z"/><path class="cls-42" d="M469.81,534.63a22.12,22.12,0,0,0-3.59-7.37,16.81,16.81,0,0,0-5.79-4.78,18.86,18.86,0,0,0-15.74,0,16.69,16.69,0,0,0-5.78,4.78,21.51,21.51,0,0,0-3.55,7.37,37.32,37.32,0,0,0-.09,18.5l7.29,1.34a22.59,22.59,0,0,1-1-3.37,35.45,35.45,0,0,1-.66-7,35.94,35.94,0,0,1,.66-7.08,18.64,18.64,0,0,1,2.1-5.73,10.89,10.89,0,0,1,3.62-3.84,9.41,9.41,0,0,1,5.22-1.41,9.64,9.64,0,0,1,5.35,1.45,11.21,11.21,0,0,1,3.67,3.93,19.18,19.18,0,0,1,2.09,5.77,34.46,34.46,0,0,1,.67,6.91q0,8.12-3,13.05c-.15.25-.32.48-.49.71L467.5,559q3.56-5.84,3.56-15A33.67,33.67,0,0,0,469.81,534.63Z"/><path class="cls-43" d="M473.75,473.24a140.48,140.48,0,0,0,24.75-7.55l-1.81-10.85L485.29,464Z"/><path class="cls-43" d="M510.28,537.29v25a9.26,9.26,0,0,0,.08,1.22l2.65,3.15a4.4,4.4,0,0,0,.65.05,7.59,7.59,0,0,0,1.71-.19l-5.12-30.58Q510.28,536.59,510.28,537.29Z"/><path class="cls-43" d="M497.21,522.88a24.13,24.13,0,0,0-7.12,4.66v-1.26a6.83,6.83,0,0,0-.71-3.57c-.48-.76-1.43-1.13-2.84-1.13H484l-.53.54v9.44l6.58,7.83v-5.26a20.29,20.29,0,0,1,6.4-5,16.34,16.34,0,0,1,7.38-1.94c2.49,0,4.18.76,5.07,2.3a6.53,6.53,0,0,1,.36.75l-1.49-8.91a15.46,15.46,0,0,0-2.43-.19A20.55,20.55,0,0,0,497.21,522.88Z"/><path class="cls-44" d="M545.64,547.76a12.53,12.53,0,0,1,4.87,3.11,6.62,6.62,0,0,1,1.65,4.57,5.94,5.94,0,0,1-.71,2.35,7.2,7.2,0,0,1-1.79,2.11,9.12,9.12,0,0,1-2.81,1.54A11.6,11.6,0,0,1,543,562a21,21,0,0,1-5.76-.91,30.24,30.24,0,0,1-6-2.61l-3.42,2.54a6,6,0,0,0-.31,1.7,27,27,0,0,0,14.67,4.51c5.17,0,9.25-1.11,12.27-3.34a11,11,0,0,0,4.54-9.39q0-7-7.24-11.25l-6,4.48Z"/><path class="cls-45" d="M524.84,383.71h0v0Z"/><path class="cls-45" d="M524.85,383.72h0l-28.15,71.13h0l10.41,6.86a91.11,91.11,0,0,0,15.52-10.09c9.68-7.88,11.3-11.43,14.35-19.43a40.19,40.19,0,0,0,2.66-18l-6.31-13Z"/><path class="cls-46" d="M477.4,346.59A145.17,145.17,0,0,1,480,387.24l44.79-3.54C513.2,370.43,496,358.19,477.4,346.59Z"/><polygon class="cls-47" points="524.84 383.7 524.84 383.7 524.83 383.7 524.84 383.71 524.84 383.7 524.84 383.7"/><path class="cls-47" d="M480,387.24c-.06.87-.12,1.74-.2,2.62-1.48,16.21-6.07,30.8-13.36,43.06l30.21,21.91,28.15-71.12h0Z"/><path class="cls-48" d="M403.47,471.38,403,475.9q8.31,1,17.13,1.38L407.31,471C406,471.15,404.76,471.27,403.47,471.38Z"/><path class="cls-48" d="M413.84,513.41a7.37,7.37,0,0,0,3.42.68,5.59,5.59,0,0,0,3.47-.86c.71-.57,1.06-1.73,1.06-3.47s-.32-2.9-1-3.44a5.78,5.78,0,0,0-3.56-.81,7.71,7.71,0,0,0-4.09.9,7.59,7.59,0,0,0-.62,3.35C412.55,511.74,413,513,413.84,513.41Z"/><path class="cls-49" d="M443.41,457.85c-1.71,1.19-3.49,2.3-5.32,3.34l6.28,15.88a199,199,0,0,0,29.38-3.83L485.29,464l11.4-9.14h0l-30.21-21.91A79.4,79.4,0,0,1,443.41,457.85Z"/><path class="cls-50" d="M315,399.57l51.4-3.69c-7.35-11.79-14.55-24.6-22-37.92q-2.5-4.48-5.08-9l-5.45,11.37Z"/><polygon class="cls-50" points="315 399.57 315 399.57 315 399.56 315 399.57 315 399.57 315 399.57 315 399.57 315 399.57 315 399.57"/><polygon class="cls-50" points="315 399.57 315 399.57 315 399.57 315 399.57"/><polygon class="cls-51" points="315 399.57 315 399.57 315 399.57 315 399.57"/><path class="cls-51" d="M315,399.57h0l44.88,47.25,3.1,3.26h0l22.55-26.95a265.24,265.24,0,0,1-19.13-27.25L315,399.57Z"/><path class="cls-52" d="M404.26,463.16l1.88-19.57a126.3,126.3,0,0,1-20.61-20.45L363,450.08h0l28.55,13.42c1.29,0,2.58.08,3.87.08C398.4,463.59,401.36,463.44,404.26,463.16Z"/><path class="cls-53" d="M444.37,477.07l-6.28-15.88a82,82,0,0,1-30.78,9.8l12.83,6.29q4.75.2,9.64.2Q437.27,477.48,444.37,477.07Z"/><path class="cls-53" d="M429.74,456.39a80.22,80.22,0,0,1-23.6-12.8l-1.88,19.57A77.74,77.74,0,0,0,429.74,456.39Z"/><path class="cls-54" d="M315,399.56h0l18.83-39.28,5.45-11.37c-3.72-6.59-7.54-13.27-11.49-20l-1.63,1c-2.91,15.05-6.31,28.93-9.62,40.94Z"/><path class="cls-55" d="M269.58,154.28,225.85,96.69l-2.39-3.14h0L220.26,115a461.41,461.41,0,0,1,10.16,47.51l5.66-1.2Z"/><polygon class="cls-55" points="269.59 154.28 269.59 154.28 269.59 154.28 269.59 154.28 269.59 154.28"/><path class="cls-56" d="M290.83,90.39a107,107,0,0,0-41.56-40.33L223.46,93.54Z"/><path class="cls-57" d="M207.06,76.65l4.27,4.4,12.13,12.49,4-52.92c-15.24-5-33.58-8.15-55.63-8.15-2.55,0-5.06.05-7.54.13l14.54,15A67.72,67.72,0,0,1,207.06,76.65Z"/><path class="cls-58" d="M223.46,93.54l25.81-43.48a127.41,127.41,0,0,0-21.79-9.44l-4,52.92Z"/><path class="cls-55" d="M296,188.17a178.36,178.36,0,0,1-1.88-65.27L283.89,136l-14.3,18.28Z"/><path class="cls-59" d="M269.59,154.28h0L283.89,136l10.25-13.1a172.12,172.12,0,0,1,3.71-17.59l-.76-2a97.31,97.31,0,0,0-6.26-12.93l-67.37,3.16,2.39,3.14,43.73,57.59Z"/><path class="cls-60" d="M223.46,93.55h0l-7,8.25c1.35,4.31,2.61,8.74,3.83,13.22l3.2-21.47Z"/><path class="cls-61" d="M290.26,229.47h0l-1.85-6.73-18.82-68.46h0l-33.5,7.05-5.66,1.2q1.64,10.16,2.92,20.61l56.92,46.33Z"/><polygon class="cls-61" points="230.42 162.53 230.42 162.53 236.08 161.34 230.42 162.53"/><path class="cls-62" d="M305.68,218.1a157.38,157.38,0,0,1-8-23c-.6-2.29-1.14-4.59-1.64-6.91l-26.44-33.89h0l18.82,68.46,1.85,6.73Z"/><path class="cls-63" d="M237.56,260.91l2.64,2.37-2.61-9.17v.45Q237.59,257.74,237.56,260.91Z"/><path class="cls-64" d="M240.2,263.28,259.84,250l30.42-20.55h0l-56.92-46.33a595.12,595.12,0,0,1,4.25,71l2.61,9.17Z"/><polygon class="cls-64" points="290.26 229.47 290.26 229.47 290.26 229.47 290.26 229.47 290.26 229.47 290.26 229.47"/><path class="cls-25" d="M237.51,264.28l2.69-1h0l-2.64-2.37C237.55,262,237.53,263.16,237.51,264.28Z"/><path class="cls-26" d="M178.86,458.91c2.68.71,5.44,1.3,8.24,1.78l1.88-8.22A99.12,99.12,0,0,1,178.86,458.91Z"/><path class="cls-28" d="M207.86,431.29C203.54,440,196.4,447.05,189,452.47l-1.88,8.22a105.55,105.55,0,0,0,17.76,1.52,121.8,121.8,0,0,0,37.56-6.32l-24.5-53.82C214.89,412.29,211.54,422.06,207.86,431.29Z"/><path class="cls-65" d="M267.6,437.58h0l-12.71,13.24a63.47,63.47,0,0,0,13.19-8.37c.66-.57,1.32-1.16,2-1.74l-2.44-3.13Z"/><path class="cls-66" d="M240.2,263.28l85.25,11.34c.05-.76.1-1.53.14-2.3l-35.33-42.85h0L259.84,250,240.2,263.28Z"/><path class="cls-67" d="M240.2,263.28h0l-2.69,1q-.07,4.32-.19,8.61l2.88-9.61Z"/><path class="cls-37" d="M317.17,334.8l-59.41,19.73h0l44.89,35.32A541.44,541.44,0,0,0,317.17,334.8Z"/><path class="cls-38" d="M267.61,437.58h0l20.75-16.65c4.13-5.45,7.09-10.32,8.3-13.62,1.44-3.9,3.55-9.86,6-17.46l-44.89-35.32h0l-31.29,13.35Q224,379.82,221,391.14l46.63,46.44h0Z"/><path class="cls-68" d="M267.61,437.58,221,391.14q-1.47,5.55-3.06,10.93l24.5,53.82a103.28,103.28,0,0,0,12.47-5.07l12.71-13.24Z"/><path class="cls-39" d="M288.36,420.93l-20.75,16.65h0l2.44,3.13A143.47,143.47,0,0,0,288.36,420.93Z"/><path class="cls-69" d="M317.45,333.42a427.36,427.36,0,0,0,8-58.8L240.2,263.28l59.87,54.36Z"/><path class="cls-70" d="M257.76,354.53h0l59.41-19.73c.09-.46.19-.92.28-1.38l-17.38-15.78L240.2,263.28h0Z"/><path class="cls-71" d="M257.76,354.53h0L240.2,263.28h0l-2.88,9.61a551,551,0,0,1-10.85,95Z"/><path class="cls-72" d="M326.06,252.34v-.82c-1.55-1.9-3-3.84-4.49-5.81l4.31,20.39c.14-3.84.22-7.69.22-11.54C326.09,253.82,326.07,253.07,326.06,252.34Z"/><path class="cls-73" d="M321.56,245.71a145.81,145.81,0,0,1-15.88-27.61l-15.42,11.37,35.33,42.85c.11-2.07.21-4.14.28-6.22Z"/><path class="cls-74" d="M113.06,41.63a106,106,0,0,1,26.29-3.37,95.26,95.26,0,0,1,14.45,1.08l8-6.64C143.61,33.48,127.42,36.43,113.06,41.63Z"/><path class="cls-75" d="M223.46,93.55h0L211.33,81.05l-4.26-4.4a79.75,79.75,0,0,1,4,9.21c.28.75.48,1.38.72,2.1q2.41,6.75,4.62,13.84l7-8.25Z"/><path class="cls-75" d="M163.13,32.64l-.82,8.46a73.93,73.93,0,0,1,16.53,6.47l-14.53-15Z"/><path class="cls-76" d="M161.8,32.7l-8,6.64a84.28,84.28,0,0,1,8.51,1.76l.82-8.46C162.68,32.65,162.24,32.68,161.8,32.7Z"/><path class="cls-77" d="M95.2,55.78A146.88,146.88,0,0,0,67.25,72.07c-.23.26-.45.54-.69.81l14.81,26.6Z"/><path class="cls-74" d="M81.37,99.49h0l63.74-52.93q-2.85-.18-5.76-.18A109,109,0,0,0,95.2,55.78L81.37,99.48Z"/><path class="cls-75" d="M161.88,49.41l-.36-.1,0,.35Z"/><path class="cls-76" d="M118,143.9c5.57-5.9,9-13.59,9-23.64,0-32,12.19-56.88,34.43-70.6l0-.35a79.24,79.24,0,0,0-16.41-2.76L81.37,99.49Z"/><path class="cls-42" d="M81.37,99.49,46.78,131.62,44.6,163.25a246.53,246.53,0,0,0,24.92-1.09Z"/><path class="cls-78" d="M69.52,162.16c17.35-1.76,37.23-6.34,48.5-18.26L81.37,99.49Z"/><polygon class="cls-55" points="320.67 89 320.67 89 320.67 89 320.67 89"/><path class="cls-79" d="M320.67,89l66.08-42.2,14.64-9.35h0l18.2-4.29C386.3,34.59,362.62,43,346,52.89Z"/><path class="cls-80" d="M487.66,41.78A143.34,143.34,0,0,0,468,36.43l3.31,2.64A105.5,105.5,0,0,1,487.66,41.78Z"/><path class="cls-81" d="M320.67,89h0L346,52.89A103.07,103.07,0,0,0,326.33,68l-3.7,9.75a44,44,0,0,0-2.08,7.35l.12,3.87Z"/><path class="cls-82" d="M379.71,120.57a104.06,104.06,0,0,1,8.71-34L320.67,89l60.56,69.59A142.83,142.83,0,0,1,379.71,120.57Z"/><polygon class="cls-82" points="320.67 89 320.67 89 320.67 89 320.67 89"/><path class="cls-83" d="M320.67,89l67.75-2.45a86,86,0,0,1,15.1-23l-2.13-26.09h0L386.75,46.8,320.67,89Z"/><path class="cls-84" d="M471.32,39.07,468,36.43a179.46,179.46,0,0,0-21-2.83l-6.29,7.89a89.61,89.61,0,0,1,22.45-2.77C465.89,38.72,468.6,38.85,471.32,39.07Z"/><path class="cls-85" d="M403.52,63.54a74.32,74.32,0,0,1,21.13-16,80.88,80.88,0,0,1,16.09-6L447,33.6c-5.56-.43-11.3-.65-17.25-.65q-5.23,0-10.19.21l-18.2,4.29Z"/><path class="cls-56" d="M320.67,89h0l-.59-.82c0,.28-.06.57-.09.86l.68,0Z"/><path class="cls-55" d="M320.21,97.84l.46-8.84-.76,1A39,39,0,0,0,320.21,97.84Z"/><path class="cls-59" d="M320.67,89h0L320,89c0,.31-.05.62-.08.93Z"/><path class="cls-86" d="M382.2,163.38c-.36-1.58-.68-3.18-1-4.79L320.67,89h0l-.46,8.84C323.73,122.72,351.13,144,382.2,163.38Z"/><path class="cls-56" d="M312,88.37l-.45,1,.37,0C312,89.06,312,88.72,312,88.37Z"/><path class="cls-55" d="M318,140.18l1.11-21.57a52.56,52.56,0,0,1-6.86-18.9l-7.38,9.43a169.06,169.06,0,0,0,.35,83.81c1,3.73,2.17,7.63,3.59,11.66l5.51,7.07Z"/><path class="cls-59" d="M312,89.41h-.37a133,133,0,0,0-6.67,19.72l7.38-9.43"/><path class="cls-62" d="M314.36,211.69h0l-5.51-7.07q1.5,4.24,3.36,8.66Z"/><path class="cls-87" d="M555,304.48h0l4.38,2.12c-.61-1.67-1.24-3.34-1.94-5L555,304.48Z"/><polygon class="cls-88" points="554.99 304.47 554.99 304.47 554.99 304.48 554.99 304.47"/><path class="cls-88" d="M557.43,301.56c-.36-.88-.74-1.77-1.13-2.66L555,304.47Z"/><path class="cls-40" d="M547,425.63a116.73,116.73,0,0,0,12.5-25.13l-19.09-9.26C546.59,401.88,549.28,413.26,547,425.63Z"/><path class="cls-89" d="M532.54,380.22a79.73,79.73,0,0,1,7.85,11l19.09,9.26a138.58,138.58,0,0,0,7.61-35.91l-30,13.55Z"/><path class="cls-90" d="M555,304.48l-25.65,67.38-1.27,3.36c1.57,1.65,3.06,3.31,4.47,5l4.6-2.08,30-13.55a140.28,140.28,0,0,0-3-42.18,135.4,135.4,0,0,0-4.68-15.81L555,304.48Z"/><path class="cls-86" d="M314.37,211.69h0l67.87-38.82c-27.08-16.63-51.4-34.12-63.09-54.25L318,140.18l-3.68,71.5h0Z"/><path class="cls-91" d="M496,271.74l59,32.73h0l1.31-5.57c-9.59-22-27.18-45.76-59.21-63.78L463,253.46Z"/><path class="cls-92" d="M463,253.46,515.16,363.3a148,148,0,0,1,12.91,11.92l1.27-3.36L555,304.48h0l-59-32.74L463,253.46Z"/><path class="cls-64" d="M497.09,235.12c-4.75-2.67-9.81-5.22-15.22-7.61l-14-7.15-4.8,33.1Z"/><path class="cls-46" d="M515.16,363.3,463,253.46h0L440,315l10.27,6C473.5,334.57,497,348.32,515.16,363.3Z"/><path class="cls-72" d="M314.37,211.69l2.37,11.21a133.62,133.62,0,0,0,22.79,31.82L386,175.16q-1.87-1.14-3.74-2.29Z"/><path class="cls-42" d="M435,203.64l-6.1-3.11L409.3,189l-1-.56,21,22.62Z"/><path class="cls-73" d="M314.37,211.69h0l-2.15,1.59c1.35,3.17,2.85,6.38,4.53,9.62l-2.37-11.21Z"/><polygon class="cls-93" points="429.34 211.01 429.34 211.01 463.03 253.46 463.03 253.46 467.83 220.35 435.01 203.64 429.34 211.01 429.34 211.01"/><path class="cls-93" d="M401.49,285.66h0L429.34,211l-21-22.63c-5.85-3.42-11.72-6.85-17.51-10.31Z"/><polygon class="cls-93" points="463.03 253.46 463.03 253.46 463.03 253.46 463.03 253.46"/><path class="cls-94" d="M402.32,295l28.35,14.44q4.63,2.79,9.37,5.57l23-61.53-61.54,32.2Z"/><polygon class="cls-94" points="401.49 285.66 401.49 285.66 401.49 285.66 401.49 285.66"/><polygon class="cls-94" points="463.03 253.46 463.03 253.46 463.03 253.46 463.03 253.46 463.03 253.46 463.03 253.46"/><polygon class="cls-95" points="401.49 285.66 393.41 290.44 402.32 294.98 401.49 285.66 401.49 285.66 401.49 285.66 401.49 285.66 401.49 285.66"/><path class="cls-96" d="M377.07,282.1l24.42,3.56h0l-10.68-107.6q-2.43-1.44-4.83-2.9l-46.45,79.56A139.47,139.47,0,0,0,377.07,282.1Z"/><path class="cls-97" d="M401.49,285.66l-24.42-3.56.65.34,15.68,8,8.09-4.77Z"/><polygon class="cls-98" points="463.03 253.46 429.34 211.01 429.34 211.01 401.49 285.66 401.49 285.66 401.49 285.66 401.49 285.66 463.03 253.46 463.03 253.46 463.03 253.46 463.03 253.46 463.03 253.46"/><path class="cls-56" d="M528.27,84.44h0L537,80l-.15-.19a96.13,96.13,0,0,0-24.5-20.49l15.94,25.11Z"/><path class="cls-80" d="M528.27,84.44h0L512.33,59.33a91.14,91.14,0,0,0-29-10.66Z"/><path class="cls-84" d="M483.37,48.67a109.12,109.12,0,0,0-20.18-1.83,81.13,81.13,0,0,0-23,3.21c16.44,10.09,34.35,30.26,34.35,70.21,0,9.19,2.91,16.42,7.67,22.1l46-57.92Z"/><path class="cls-99" d="M548.85,124.6,555.23,137l-1.16-16.77c0-12.2-6.86-28.34-17.09-40.25l-8.71,4.43Z"/><path class="cls-20" d="M528.27,84.44h0l-46,57.92c16.9,20.14,57.22,20.87,74.8,20.89L555.23,137l-6.38-12.43Z"/><path class="cls-61" d="M81.37,99.48h0L66.56,72.88c-12.26,14.21-19,31-19,47.51l-.77,11.23L81.37,99.49Z"/><path class="cls-63" d="M228.91,223.57l-1.06-3.72c-16-6.34-33-7.77-45-8.09l46.91,42.12C229.71,243.91,229.43,233.74,228.91,223.57Z"/><path class="cls-24" d="M114.5,219.25l.09-.11-.28-.19-3.13.88C112.28,219.62,113.39,219.43,114.5,219.25Z"/><path class="cls-64" d="M228.74,220.2l-.89-.35,1.06,3.72C228.85,222.45,228.8,221.33,228.74,220.2Z"/><path class="cls-25" d="M201.34,247.76A206,206,0,0,1,216.63,272l13-4.8c.09-4.22.15-8.45.15-12.65v-.68l-46.91-42.12c-3.49-.1-6.55-.1-9-.1h-1.94c-7,0-13.8.3-20.48.86l.52,6.31a82.35,82.35,0,0,1,24.22,7.46A73.41,73.41,0,0,1,201.34,247.76Z"/><path class="cls-35" d="M114.59,219.14l-.09.11.14,0Z"/><path class="cls-36" d="M114.64,219.23A127.54,127.54,0,0,1,135,217.57a109.73,109.73,0,0,1,16.87,1.26l-.52-6.31a208.59,208.59,0,0,0-36.47,6.27l-.31.35Z"/><path class="cls-67" d="M229.58,267.21l-13,4.8c3.72,6.66,7.62,14,11.79,22C229,285.14,229.39,276.16,229.58,267.21Z"/><path class="cls-20" d="M415.3,566.18a20.24,20.24,0,0,0,6.59,0V550.67l-6.59-1.21Z"/><path class="cls-42" d="M420.33,523.34a5.23,5.23,0,0,0-.82-.74l-5.19,5.15a1.3,1.3,0,0,1,.18.15,5.39,5.39,0,0,1,.8,3.44v18.12l6.59,1.21V528.08A6.92,6.92,0,0,0,420.33,523.34Z"/><path class="cls-48" d="M415.3,521.58a14.25,14.25,0,0,0-1.69.13c-.71.09-1.63.2-2.75.32a8,8,0,0,0-.36,2.53,7.22,7.22,0,0,0,.36,2.44h.8a3.91,3.91,0,0,1,2.66.75l5.19-5.15a5.76,5.76,0,0,0-3.5-1Z"/><polygon class="cls-100" points="391.57 543.46 385.16 539.91 385.16 539.91 391.57 543.46 391.57 543.46"/><polygon class="cls-17" points="385.16 539.91 385.16 555.55 391.57 549.87 391.57 543.46 385.16 539.91"/><path class="cls-20" d="M385.16,559.05q0,7.49,8.63,7.49a64.63,64.63,0,0,0,8.45-.54,6,6,0,0,0,.18-1.9,8.26,8.26,0,0,0-.63-3.07H395q-3.46,0-3.46-3.79v-7.38l-6.41,5.69Z"/><path class="cls-22" d="M385.16,514.44v7.5l-6.31-.09a13.1,13.1,0,0,0-.26,2.57,13.27,13.27,0,0,0,.26,2.58l6.31-.09v13l6.41,3.55V533Z"/><path class="cls-30" d="M391.57,508.49,391,508h-2.4a3.11,3.11,0,0,0-2.75,1,6.35,6.35,0,0,0-.72,3.49v2L391.57,533v-6.12l6.34.05.5-5-6.84.11Z"/><path class="cls-48" d="M402.86,527a14.15,14.15,0,0,0,.27-2.58,14,14,0,0,0-.27-2.57l-4.45.07-.5,5Z"/><polygon class="cls-16" points="310.55 510.56 310.55 553.18 317.05 556.38 317.05 504.98 310.55 510.56"/><path class="cls-19" d="M310.55,559.05q0,4.23,2.49,5.91a10.76,10.76,0,0,0,6.14,1.67,18.44,18.44,0,0,0,2.67-.19q1.33-.18,2.76-.45a3.64,3.64,0,0,1,0-.51,6.36,6.36,0,0,0,.05-.87,13.91,13.91,0,0,0-.14-1.83,6.8,6.8,0,0,0-.49-1.84h-3.73c-2.2,0-3.29-1.29-3.29-3.87v-.69l-6.5-3.2Z"/><path class="cls-23" d="M316.81,502l-3.92-2.22h-1.8l-.54.55v10.19l6.5-5.58v-.66A9.72,9.72,0,0,0,316.81,502Z"/><path class="cls-65" d="M313.49,499.82h-.6l3.92,2.22a3.58,3.58,0,0,0-.48-1.18C315.86,500.17,314.92,499.82,313.49,499.82Z"/><polygon class="cls-2" points="98.17 548.16 98.17 548.16 84.42 542.82 84.42 562.82 98.17 548.16 98.17 548.16"/><path class="cls-4" d="M98.18,548.16h0L84.42,562.81v3.37a41.66,41.66,0,0,0,7.07.53,38.68,38.68,0,0,0,6.89-.53V548.24l-.2-.08Z"/><path class="cls-6" d="M98.17,548.16l-14-27.33c-1.58.07-3.32.2-5.27.39a19.45,19.45,0,0,0-.54,5,17.43,17.43,0,0,0,.54,4.83h1.32q4.18,0,4.19,5.24v6.52l13.75,5.34Z"/><polygon class="cls-8" points="98.18 548.16 98.18 548.16 98.18 548.16 98.18 548.16"/><path class="cls-8" d="M98.18,548.16h0l.2-.12V531.51a13.91,13.91,0,0,0-.66-4.44l.46,21.09Z"/><polygon class="cls-9" points="98.18 548.16 98.18 548.16 98.18 548.16 98.18 548.16 98.18 548.16 98.18 548.16 98.38 548.24 98.38 548.04 98.18 548.16"/><path class="cls-10" d="M98.17,548.16h0l-.46-21.09a9.38,9.38,0,0,0-2-3.42,9.07,9.07,0,0,0-7.06-2.89h-2c-.78,0-1.64,0-2.55.07l14,27.33Z"/><path class="cls-101" d="M326.7,327.07l-.54,2.83,1.63-.95Z"/><path class="cls-102" d="M320.67,89l-.12-4c-.2,1-.36,2.08-.47,3.11Z"/></svg>